<?xml version="1.0" standalone="no"?>
<!DOCTYPE svg PUBLIC "-//W3C//DTD SVG 20010904//EN"
 "http://www.w3.org/TR/2001/REC-SVG-20010904/DTD/svg10.dtd">
<svg version="1.0" xmlns="http://www.w3.org/2000/svg"
 width="1280.000000pt" height="853.000000pt" viewBox="0 0 1280.000000 853.000000"
 preserveAspectRatio="xMidYMid meet">

<g transform="translate(0.000000,853.000000) scale(0.100000,-0.100000)"
fill="#000000" stroke="none">
<path d="M0 4265 l0 -4265 6400 0 6400 0 0 4265 0 4265 -6400 0 -6400 0 0
-4265z m6307 3279 c-3 -3 -12 -4 -19 -1 -8 3 -5 6 6 6 11 1 17 -2 13 -5z m166
-1 c-7 -2 -21 -2 -30 0 -10 3 -4 5 12 5 17 0 24 -2 18 -5z m-220 -10 c-13 -2
-35 -2 -50 0 -16 2 -5 4 22 4 28 0 40 -2 28 -4z m414 0 c-20 -2 -52 -2 -70 0
-17 2 0 4 38 4 39 0 53 -2 32 -4z m-529 -10 c-10 -2 -28 -2 -40 0 -13 2 -5 4
17 4 22 1 32 -1 23 -4z m620 0 c-10 -2 -26 -2 -35 0 -10 3 -2 5 17 5 19 0 27
-2 18 -5z m-192 -31 c45 -23 64 -43 89 -92 25 -48 25 -149 0 -187 -11 -17 -20
-23 -23 -15 -3 10 -7 10 -19 0 -14 -11 -15 -10 -9 12 7 24 7 25 -6 3 -13 -21
-16 -23 -39 -23 -6 0 -9 -6 -6 -13 3 -7 -8 -20 -23 -29 l-28 -16 24 36 c14 20
30 55 36 79 10 43 11 43 57 45 l46 2 -46 3 c-38 3 -55 12 -93 46 -44 41 -59
78 -37 92 12 6 51 -42 52 -64 0 -9 3 -11 5 -4 3 7 -2 28 -11 47 -31 64 -114
73 -171 17 -60 -59 -62 -145 -4 -247 28 -50 28 -53 10 -59 -47 -15 -150 77
-169 149 -12 50 -7 86 18 126 18 28 68 83 56 61 -5 -8 7 -3 27 12 19 15 42 27
51 27 9 0 19 5 23 11 11 18 144 4 190 -19z m-225 -125 c-10 -9 -11 -8 -5 6 3
10 9 15 12 12 3 -3 0 -11 -7 -18z m1284 -33 c24 -11 25 -13 5 -8 -14 4 -38 13
-55 20 -24 11 -25 13 -5 8 14 -4 39 -13 55 -20z m-2315 6 c-8 -5 -19 -10 -25
-10 -5 0 -3 5 5 10 8 5 20 10 25 10 6 0 3 -5 -5 -10z m2615 -52 c83 -41 100
-55 70 -55 -8 0 -12 4 -9 9 3 4 1 8 -3 8 -11 0 -160 79 -151 80 4 0 46 -19 93
-42z m-235 22 c8 -5 11 -10 5 -10 -5 0 -17 5 -25 10 -8 5 -10 10 -5 10 6 0 17
-5 25 -10z m211 -86 c17 -8 37 -13 45 -10 8 3 13 2 10 -2 -3 -5 11 -16 30 -25
42 -21 40 -21 48 -1 4 12 2 15 -9 10 -8 -3 -15 -1 -15 5 0 6 -5 7 -12 3 -6 -4
-8 -3 -4 4 8 13 66 -4 66 -19 0 -5 10 -9 22 -9 21 0 21 0 2 15 -40 33 116 -51
221 -118 439 -279 868 -738 1149 -1230 91 -158 195 -378 244 -512 137 -381
188 -637 198 -1000 6 -207 -6 -429 -25 -448 -5 -5 -7 4 -5 23 2 19 0 29 -6 25
-6 -3 -10 3 -10 15 0 12 4 19 10 15 6 -4 6 5 0 22 -5 15 -11 37 -14 48 -3 11
-3 0 -1 -25 4 -29 2 -40 -4 -31 -10 15 -11 7 -12 -89 0 -42 -1 -43 -9 -16 -6
18 -5 73 2 140 38 394 -50 950 -214 1356 -105 259 -263 545 -428 775 -212 294
-487 571 -765 771 -155 112 -192 134 -387 235 -95 48 -169 89 -165 89 4 0 22
-7 38 -16z m-2872 2 c-10 -9 -109 -56 -109 -51 0 6 91 54 104 55 5 0 7 -2 5
-4z m530 -45 c31 -16 55 -34 54 -40 -2 -5 9 -7 24 -5 21 4 34 -4 72 -44 61
-66 117 -162 142 -245 11 -38 18 -71 16 -73 -2 -3 -21 34 -42 81 -21 47 -40
84 -42 82 -2 -2 4 -20 12 -40 21 -52 20 -69 -7 -65 -16 2 -26 -5 -36 -24 -15
-31 -33 -35 -59 -13 -10 8 -35 27 -55 42 -20 15 -65 53 -101 83 -36 30 -87 66
-115 80 -33 16 -46 28 -39 33 9 6 9 10 0 13 -9 4 -9 11 -1 30 9 20 9 27 -2 34
-7 5 -15 15 -16 23 -3 22 89 31 166 17 34 -6 64 -10 66 -8 2 2 -33 19 -76 38
-44 19 -80 38 -80 42 0 11 59 -9 119 -41z m-140 13 c51 -10 36 -19 -40 -22
-45 -2 -69 0 -65 6 3 6 0 13 -6 15 -19 8 74 8 111 1z m2375 -23 c-61 -37 -51
-49 51 -62 56 -7 55 -7 -15 -3 -41 2 -93 6 -115 9 -24 3 -9 -4 39 -18 56 -16
81 -29 87 -42 7 -17 8 -18 8 -2 1 20 21 23 21 3 0 -8 25 -31 55 -51 110 -73
184 -178 235 -330 57 -174 65 -331 21 -425 l-21 -45 7 55 c31 222 -35 487
-153 619 -25 28 -50 51 -56 51 -5 0 -24 11 -41 24 -64 48 -134 66 -196 49
l-23 -6 28 -13 c21 -10 22 -12 6 -8 -13 3 -30 0 -39 -7 -14 -12 -10 -15 28
-26 l44 -13 -55 5 c-79 6 -179 -18 -268 -65 -42 -23 -69 -35 -59 -27 14 11 15
16 5 21 -7 3 -4 4 7 3 11 -1 19 3 18 10 -2 8 4 10 15 6 9 -3 14 -3 10 1 -4 5
-3 18 2 30 5 14 3 28 -6 41 -21 28 -18 36 26 80 21 22 39 46 40 53 0 6 5 12
12 12 6 0 9 3 5 6 -10 10 -141 -34 -204 -68 -155 -83 -289 -215 -386 -380 -29
-48 -56 -88 -60 -88 -10 0 83 176 126 240 51 74 187 202 262 247 125 75 294
123 389 110 23 -3 66 0 96 7 78 19 89 19 54 -3z m-2894 -12 c-8 -5 -66 -40
-128 -77 -142 -84 -349 -234 -464 -335 -48 -43 -93 -75 -98 -72 -6 4 -9 2 -8
-3 2 -5 -46 -60 -105 -122 -189 -197 -301 -337 -454 -566 -92 -136 -238 -408
-228 -424 3 -5 1 -18 -5 -27 -9 -15 -10 -14 -5 7 5 24 5 24 -10 -3 -9 -16 -14
-35 -11 -43 4 -10 2 -12 -6 -8 -8 5 -9 2 -5 -10 4 -10 3 -15 -3 -11 -9 6 -14
-10 -13 -42 1 -7 -3 -11 -7 -8 -8 5 -104 -263 -140 -390 -31 -108 -67 -305
-86 -465 -19 -169 -15 -473 10 -655 9 -60 18 -130 21 -155 4 -45 4 -45 -6 -10
-6 19 -13 53 -16 74 -3 22 -13 48 -23 58 -17 19 -18 18 -24 -4 -9 -33 -5 -58
4 -28 l8 25 1 -27 c1 -14 -4 -28 -10 -30 -8 -3 -6 -10 5 -21 11 -10 13 -17 6
-17 -8 0 -10 -10 -8 -25 3 -14 2 -25 -2 -25 -10 0 -28 141 -41 320 -26 359 23
764 133 1108 180 563 457 1016 894 1458 76 77 150 149 163 160 23 17 24 18 18
1 -4 -11 -3 -16 3 -12 6 3 10 13 10 21 0 8 4 13 9 12 5 -2 21 8 37 22 41 35
154 122 184 141 61 38 85 51 66 35 -31 -25 -11 -31 23 -6 34 24 40 35 14 26
-11 -4 -8 2 7 14 14 11 31 17 38 15 21 -8 37 6 21 17 -11 7 -9 8 4 4 12 -4 57
15 125 54 59 33 109 60 112 59 3 0 -2 -5 -10 -10z m415 -18 c-14 -12 -146 -63
-151 -58 -9 9 28 30 83 47 66 22 81 24 68 11z m1641 -46 c138 -15 239 -34 230
-42 -2 -3 -71 1 -153 7 -91 8 -222 11 -340 7 -106 -3 -193 -4 -193 -2 0 6 80
27 135 35 81 12 182 11 321 -5z m-1735 -31 c-11 -14 -41 -44 -66 -66 -25 -22
-43 -44 -39 -49 3 -5 -1 -9 -9 -9 -8 0 -40 -27 -71 -61 -31 -33 -56 -56 -56
-51 0 14 70 126 98 155 30 31 139 107 154 107 5 0 0 -12 -11 -26z m964 11
c-93 -7 -210 -20 -260 -29 -105 -19 -105 -19 -105 -7 0 4 24 11 53 15 28 4 90
13 137 20 47 8 144 14 215 14 l130 -1 -170 -12z m-311 -118 c71 -72 140 -132
166 -145 l45 -23 -50 7 c-58 7 -74 20 -158 124 -33 41 -78 94 -101 118 -22 23
-36 42 -32 42 5 0 63 -55 130 -123z m743 43 c-32 -4 -61 -11 -65 -15 -7 -7
122 0 183 10 28 4 28 4 5 -4 -24 -9 -24 -9 8 -10 17 -1 32 -6 32 -12 0 -8 25
-10 80 -7 53 3 86 1 97 -7 21 -15 -159 -9 -200 7 -23 9 -31 8 -38 -3 -6 -10
-9 -10 -9 -1 0 7 -14 12 -37 11 -34 -1 -35 -2 -13 -9 26 -8 -115 -17 -213 -13
-26 2 -46 -1 -43 -6 3 -4 -38 -11 -92 -15 -53 -3 -146 -12 -207 -20 -104 -13
-112 -13 -141 5 -46 28 -57 44 -31 45 12 0 59 6 104 13 45 6 93 9 107 5 14 -3
26 -2 26 3 0 4 19 9 43 10 97 4 190 12 195 18 3 3 64 4 136 4 106 -1 120 -3
73 -9z m226 -7 c-13 -2 -33 -2 -45 0 -13 2 -3 4 22 4 25 0 35 -2 23 -4z m167
-12 l45 -7 -42 -5 c-24 -2 -39 0 -36 5 4 5 -20 7 -58 3 -39 -3 -56 -2 -44 3
24 11 75 11 135 1z m-183 -7 c-3 -3 -12 -4 -19 -1 -8 3 -5 6 6 6 11 1 17 -2
13 -5z m223 -54 c-45 -54 -44 -54 -110 -39 -25 5 -69 9 -97 9 -29 -1 -53 3
-53 9 0 5 -12 8 -27 6 -74 -9 -282 -15 -286 -8 -3 4 20 7 51 6 43 -2 51 0 32
7 -23 8 -23 9 10 9 19 1 62 3 95 6 64 5 243 -12 260 -25 6 -5 26 -11 46 -15
33 -6 38 -4 67 33 17 21 29 42 25 46 -3 3 2 6 11 6 14 0 8 -11 -24 -50z m340
2 c12 -11 16 -22 11 -31 -5 -7 -10 -12 -12 -11 -2 1 -17 -3 -32 -9 -36 -14
-34 -14 -47 9 -9 17 -6 23 22 40 40 24 35 24 58 2z m420 -2 c18 -12 2 -12 -25
0 -13 6 -15 9 -5 9 8 0 22 -4 30 -9z m-2462 -30 c79 -19 136 -53 207 -124 112
-113 185 -280 185 -421 0 -83 -31 -141 -131 -248 -126 -135 -235 -177 -368
-143 -84 22 -144 58 -218 133 -35 35 -63 59 -63 55 0 -11 73 -115 122 -174 22
-27 35 -48 30 -48 -13 0 -126 149 -153 202 -11 22 -16 37 -10 33 17 -10 13 3
-9 33 -30 41 -40 104 -40 252 0 123 3 142 29 217 34 98 73 150 139 186 92 50
192 67 280 47z m248 -40 c7 -8 10 -18 8 -22 -3 -5 -1 -8 4 -8 6 0 13 -8 16
-17 3 -10 -14 5 -39 32 -24 28 -45 54 -45 59 0 10 37 -19 56 -44z m2369 30
c10 -11 16 -20 13 -20 -3 0 -13 9 -23 20 -10 11 -16 20 -13 20 3 0 13 -9 23
-20z m-1535 4 c-14 -3 -210 -29 -315 -41 -27 -3 -48 -3 -45 0 6 6 176 34 245
40 54 5 134 6 115 1z m1319 -15 c99 -22 201 -88 254 -163 17 -25 12 -22 -31
16 -69 61 -143 96 -235 108 -93 13 -180 1 -255 -36 -113 -55 -245 -212 -293
-349 -11 -32 -21 -92 -24 -142 -2 -47 -6 -87 -9 -90 -6 -6 -26 65 -26 92 0 85
73 250 158 357 132 165 305 243 461 207z m-856 -30 c38 -6 67 -13 65 -15 -3
-2 -67 1 -144 8 -93 7 -171 8 -236 2 -61 -6 -94 -6 -88 0 24 24 272 27 403 5z
m-443 -19 c0 -5 -4 -10 -10 -10 -5 0 -10 5 -10 10 0 6 5 10 10 10 6 0 10 -4
10 -10z m-113 -26 c-3 -3 -12 -4 -19 -1 -8 3 -5 6 6 6 11 1 17 -2 13 -5z m-67
-46 c0 -3 -13 -11 -29 -16 -27 -9 -29 -8 -27 14 1 29 4 29 23 7 8 -10 12 -12
8 -5 -9 18 5 38 16 21 5 -8 9 -17 9 -21z m1508 5 c13 -8 26 -12 29 -9 3 3 19
-2 36 -10 26 -14 29 -14 24 -1 -4 11 0 13 14 10 10 -3 16 -9 13 -14 -3 -5 2
-9 11 -9 11 0 15 -5 11 -16 -3 -8 -2 -12 4 -9 11 7 25 -39 15 -54 -9 -15 8
-14 25 2 8 6 2 -5 -13 -25 -15 -20 -27 -45 -27 -55 0 -11 -6 -25 -12 -32 -11
-11 -9 -12 12 -6 14 4 33 7 43 8 9 1 17 5 17 9 0 4 5 8 11 8 6 0 9 -7 6 -14
-4 -10 -1 -13 8 -10 8 3 11 12 8 20 -6 17 11 19 25 2 7 -9 3 -19 -11 -33 -11
-11 -17 -14 -13 -8 5 9 2 11 -8 7 -8 -3 -12 -12 -9 -20 6 -17 15 -18 33 -1 12
10 12 9 2 -4 -16 -21 -109 -62 -122 -54 -6 3 -10 16 -10 29 0 37 -20 87 -59
146 l-36 55 -6 -72 c-6 -79 -25 -113 -64 -113 -38 0 -95 80 -95 135 0 22 -2
23 -23 14 -35 -16 -48 -44 -60 -135 l-11 -84 -39 -11 c-21 -6 -51 -8 -65 -6
-24 4 -24 4 6 6 17 0 32 6 32 11 0 6 -5 10 -11 10 -6 0 -9 6 -6 14 3 7 0 19
-6 25 -9 9 -8 15 6 22 24 14 22 32 -3 19 -11 -6 -20 -8 -20 -6 0 3 12 12 26
19 22 12 24 15 10 20 -12 5 -15 3 -10 -6 5 -7 1 -6 -10 3 -17 13 -17 14 1 21
17 7 17 8 -2 9 -11 2 -24 2 -28 1 -5 -1 -6 3 -2 9 3 6 11 8 16 5 5 -4 12 1 15
9 3 9 9 14 13 11 13 -8 8 20 -6 33 -10 10 -12 9 -10 -9 3 -27 -18 -36 -27 -13
-4 11 1 25 14 39 11 12 17 24 14 28 -4 4 2 10 12 13 24 9 55 35 50 43 -2 3 16
7 40 7 26 1 52 8 63 18 22 20 31 20 31 1 0 -19 16 -20 23 -1 3 8 1 17 -6 20
-7 2 11 2 38 -1 28 -3 61 -12 73 -20z m-1578 -2 c0 -5 -12 -6 -27 -3 -24 5
-25 6 -8 12 21 8 35 4 35 -9z m588 -3 c20 -20 14 -37 -18 -53 -46 -24 -110
-18 -110 11 0 8 9 23 20 34 23 23 88 28 108 8z m1256 -14 c3 -8 2 -12 -4 -9
-6 3 -10 10 -10 16 0 14 7 11 14 -7z m-550 -19 c-4 -8 -11 -15 -16 -15 -6 0
-5 6 2 15 7 8 14 15 16 15 2 0 1 -7 -2 -15z m-934 -5 c0 -5 -4 -10 -9 -10 -6
0 -13 5 -16 10 -3 6 1 10 9 10 9 0 16 -4 16 -10z m-464 -34 c8 -9 14 -34 13
-63 0 -54 -21 -183 -33 -201 -12 -20 -45 -13 -62 13 -9 14 -19 23 -22 21 -3
-3 1 -12 7 -20 10 -12 8 -17 -8 -26 -17 -9 -21 -8 -21 4 0 8 -9 31 -21 50 -22
38 -23 33 18 169 3 12 11 17 22 14 12 -3 21 5 30 24 14 32 52 39 77 15z m379
4 c-28 -12 -37 -12 -30 0 3 6 16 10 28 9 21 0 21 -1 2 -9z m-1595 -32 c-5 -18
-20 -41 -32 -50 -297 -219 -404 -310 -587 -497 -272 -278 -453 -551 -576 -865
-81 -208 -141 -436 -177 -671 -19 -133 -16 -564 6 -730 37 -275 123 -547 258
-815 48 -96 88 -176 88 -177 0 -2 -4 -3 -10 -3 -5 0 -10 4 -10 10 0 5 -25 54
-55 108 -103 185 -218 503 -265 732 -28 136 -49 354 -51 520 -2 104 -4 120 -8
70 -3 -36 -10 -71 -14 -78 -10 -14 -30 -6 -21 9 3 5 1 15 -4 22 -5 7 -12 21
-15 32 -2 11 -5 2 -6 -20 -1 -29 -4 -36 -11 -25 -6 10 -10 -3 -13 -45 -3 -33
-3 3 -1 80 13 466 147 916 398 1335 97 162 227 340 331 454 112 123 385 372
423 387 13 5 40 21 60 36 54 39 60 45 37 37 -21 -8 -21 -6 9 16 13 10 17 10
12 3 -4 -7 -3 -13 2 -13 13 0 33 25 26 32 -3 3 3 5 13 5 10 -1 17 3 16 9 -1 6
3 11 10 11 17 0 151 83 160 99 13 23 16 16 7 -18z m1454 26 c26 -10 18 -42
-15 -59 -38 -20 -93 -16 -97 7 -7 39 62 71 112 52z m2111 -252 c217 -155 471
-417 637 -657 284 -410 424 -812 469 -1340 11 -130 6 -445 -7 -480 -3 -7 4
-23 16 -35 12 -12 20 -24 17 -26 -2 -2 -35 31 -73 73 -38 43 -73 81 -78 85 -5
3 -8 121 -7 275 2 316 -12 463 -64 662 -45 170 -88 279 -176 452 -203 396
-497 732 -857 978 -57 39 -92 70 -92 81 0 10 -3 32 -6 50 l-7 32 89 -57 c49
-32 112 -73 139 -93z m-3601 60 c-4 -46 -1 -104 11 -176 10 -59 15 -109 13
-112 -3 -2 -8 13 -12 36 -5 33 -10 40 -29 40 -48 -1 -90 -65 -80 -124 3 -20 8
-36 10 -36 2 0 24 14 48 30 l44 31 7 -26 c11 -43 -32 -152 -107 -272 -103
-164 -133 -240 -134 -334 0 -71 3 -82 47 -170 61 -123 144 -213 351 -380 88
-70 169 -134 180 -142 19 -13 17 -18 -67 -150 -50 -78 -103 -149 -125 -166
-21 -17 -141 -96 -267 -175 -213 -135 -230 -144 -247 -129 -9 9 -42 18 -73 21
-51 4 -59 2 -109 -33 -78 -53 -190 -175 -223 -242 -62 -122 -68 -189 -33 -315
15 -54 18 -81 11 -103 l-9 -30 1 30 c2 59 -26 105 -29 48 -2 -25 -1 -26 8 -8
9 19 9 18 5 -3 -2 -12 0 -20 5 -16 5 3 6 -3 2 -12 -4 -11 -8 -13 -11 -6 -2 7
-9 9 -14 6 -6 -4 -9 -3 -6 2 3 5 2 18 -3 29 -6 17 -8 15 -8 -10 -1 -16 -6 -37
-12 -45 -8 -11 -9 -9 -4 10 7 25 7 25 -10 5 -16 -20 -16 -19 -11 7 4 15 2 29
-3 32 -14 9 -23 118 -30 397 -4 146 -11 271 -15 278 -6 9 -11 8 -21 -6 -11
-14 -11 -8 0 31 30 99 19 120 -97 198 -54 37 -116 59 -103 37 5 -8 1 -9 -13
-5 -12 4 -23 2 -28 -5 -5 -8 -3 -10 7 -4 8 5 11 4 6 -1 -5 -5 -16 -9 -25 -9
-9 0 -25 -16 -34 -37 -21 -43 -31 -50 -22 -14 3 13 1 27 -5 30 -6 4 -11 0 -11
-9 0 -13 -3 -13 -13 -3 -43 40 45 468 148 720 148 362 327 620 643 930 155
151 361 323 470 389 12 8 22 19 22 26 0 7 2 13 5 13 3 0 2 -31 -1 -68z m2571
59 c3 -5 1 -12 -5 -16 -5 -3 -10 1 -10 9 0 18 6 21 15 7z m-701 -47 c24 -9 19
-22 -14 -39 -59 -31 -123 -10 -90 30 13 15 74 20 104 9z m-264 -19 c0 -8 -7
-15 -15 -15 -26 0 -18 20 13 29 1 1 2 -6 2 -14z m850 -15 c0 -5 -4 -10 -10
-10 -5 0 -10 5 -10 10 0 6 5 10 10 10 6 0 10 -4 10 -10z m125 -41 c-5 -7 -11
-6 -21 2 -11 9 -12 15 -2 26 10 12 13 12 20 -1 5 -9 6 -21 3 -27z m-1304 2 c7
11 9 11 9 -1 0 -18 -5 -17 168 -26 89 -4 138 -11 146 -20 8 -7 16 -11 18 -8 6
5 71 -17 78 -26 3 -4 30 -14 60 -22 75 -21 148 -16 192 15 79 53 136 60 123
15 -12 -40 -82 -153 -92 -151 -22 5 -47 -38 -44 -75 l2 -37 -28 34 c-42 49
-82 47 -131 -5 -25 -26 -27 -30 -7 -12 26 23 35 25 70 18 34 -6 35 -8 11 -9
-72 -3 -179 -98 -221 -196 -33 -77 -16 -205 29 -213 12 -3 16 0 11 8 -5 9 -1
10 14 5 16 -5 32 3 63 29 37 32 48 36 99 36 50 0 61 4 86 29 34 34 69 100 83
159 9 35 15 42 35 42 13 0 30 -3 39 -6 24 -9 20 -63 -6 -91 -12 -13 -17 -23
-11 -23 6 0 16 7 23 15 7 8 16 12 21 10 12 -8 31 34 25 53 -5 13 -2 12 10 -3
l16 -20 -5 20 c-2 11 -8 29 -13 40 -8 20 -8 20 21 1 l30 -19 -20 23 c-17 19
-17 22 -3 17 12 -4 16 -1 13 14 -2 10 -2 19 1 19 2 0 50 -35 107 -79 125 -96
217 -156 322 -209 141 -72 192 -87 330 -95 62 -4 27 -22 -49 -25 -73 -3 -140
6 -191 24 -13 4 -17 4 -10 -3 6 -5 39 -18 75 -28 36 -11 68 -23 71 -28 4 -5 9
-5 13 1 4 6 13 9 21 6 8 -4 13 -10 10 -14 -3 -5 15 -8 40 -7 35 2 45 -1 45
-14 0 -24 9 -28 38 -20 15 5 36 5 47 0 11 -4 14 -8 6 -8 -8 -1 -12 -3 -9 -6 3
-3 18 1 34 10 16 8 22 15 14 16 -10 0 -11 2 -2 6 6 2 10 10 6 16 -3 7 2 3 10
-7 9 -11 16 -26 16 -33 0 -7 3 -12 8 -12 4 1 16 1 27 0 17 -1 18 -3 5 -11 -11
-7 -12 -10 -2 -10 8 0 16 9 19 19 4 16 8 17 18 8 10 -9 9 -14 -4 -25 -12 -10
-13 -15 -3 -18 6 -3 12 -16 12 -29 0 -16 -10 -27 -36 -40 -94 -44 -218 -76
-354 -88 -25 -3 -20 -5 20 -7 83 -4 -255 -34 -365 -32 -49 1 -160 11 -245 22
-325 43 -379 49 -515 57 -130 7 -135 8 -70 14 66 5 67 6 18 7 -29 1 -53 7 -53
12 0 6 -12 10 -27 10 -23 0 -25 2 -13 11 15 11 12 11 -187 -9 -56 -6 -90 -3
-145 11 -101 25 -209 22 -353 -8 -161 -35 -283 -55 -325 -54 -29 0 -24 3 25
14 33 7 132 34 220 60 208 61 221 64 280 66 l50 1 -35 13 c-19 7 -29 14 -22
14 6 1 12 7 12 15 0 8 7 17 16 20 8 3 12 10 9 16 -3 6 1 13 10 16 9 4 21 17
26 30 4 13 16 24 24 24 11 0 15 6 10 19 -3 12 0 21 10 25 8 3 15 13 15 23 0
15 -2 15 -14 -3 -12 -14 -10 -1 4 56 28 106 26 191 -6 265 -45 105 -44 121 7
174 21 22 28 38 24 49 -4 9 -8 22 -8 29 0 7 -4 10 -8 8 -4 -3 -10 6 -13 20 -5
20 0 31 26 54 18 16 35 25 37 19 2 -6 7 -5 12 3z m2016 -38 c-3 -10 -5 -2 -5
17 0 19 2 27 5 18 2 -10 2 -26 0 -35z m238 -62 c330 -248 610 -581 788 -936
123 -246 178 -416 212 -655 20 -136 31 -450 21 -571 l-7 -85 -49 23 c-27 13
-87 37 -134 53 -133 47 -385 174 -508 256 -99 66 -254 192 -331 269 -16 16
-34 51 -43 84 -8 31 -24 82 -35 113 l-20 56 101 98 c162 157 226 271 237 424
9 127 -35 240 -175 443 -40 59 -103 168 -138 242 l-65 134 7 76 c6 70 8 75 24
63 10 -7 62 -46 115 -87z m-2348 55 c-4 -9 -12 -16 -19 -16 -10 0 -10 2 1 9 9
6 10 11 2 15 -6 4 -8 12 -5 18 10 15 28 -8 21 -26z m2089 -101 c-23 -68 -109
-186 -179 -245 -34 -29 -96 -69 -137 -89 -71 -34 -80 -36 -175 -36 -89 1 -109
4 -182 34 -103 40 -119 58 -20 23 62 -23 88 -27 192 -27 118 0 121 1 199 38
141 67 283 230 303 349 5 30 9 36 11 20 2 -13 -3 -43 -12 -67z m-527 -46 c31
-83 94 -149 144 -149 29 0 42 7 72 43 20 23 50 67 65 98 17 34 37 59 49 62 26
6 26 0 4 -26 -14 -15 -15 -21 -5 -24 16 -6 -4 -33 -24 -33 -8 0 -19 -11 -24
-25 -5 -14 -14 -25 -20 -25 -6 0 -8 -6 -4 -12 4 -7 4 -10 0 -7 -7 7 -73 -52
-70 -61 5 -12 -63 -8 -83 6 -13 8 -29 12 -36 8 -7 -4 -9 -3 -4 1 9 10 -32 56
-44 49 -5 -3 -6 2 -3 10 4 10 1 16 -7 16 -7 0 -10 3 -6 6 3 4 0 21 -7 38 -15
36 -28 86 -23 86 3 0 14 -27 26 -61z m820 -339 c165 -249 202 -386 147 -542
-34 -97 -70 -153 -150 -237 -104 -108 -235 -207 -391 -295 -64 -37 -53 -25
156 152 91 77 189 167 219 199 167 183 196 327 101 515 -60 119 -179 319 -228
382 -25 33 -46 64 -46 70 -1 74 2 72 56 -24 30 -52 91 -151 136 -220z m-3499
179 c-21 -181 -73 -307 -165 -400 -39 -38 -53 -60 -50 -74 3 -11 2 -14 -1 -7
-12 26 -24 -2 -24 -57 0 -92 48 -176 162 -287 51 -50 120 -110 153 -134 127
-95 212 -164 255 -210 51 -53 44 -40 -20 39 -24 29 -91 89 -149 132 -57 44
-100 79 -96 79 5 0 17 -7 27 -16 15 -14 20 -15 34 -3 14 11 23 4 75 -52 33
-35 95 -107 140 -159 44 -52 98 -108 119 -125 22 -16 39 -35 40 -42 0 -6 4
-15 10 -18 6 -4 7 1 3 12 -6 15 -5 16 9 3 9 -8 14 -18 11 -22 -2 -5 -1 -8 4
-8 4 -1 28 -19 53 -42 51 -46 46 -44 -66 28 -44 28 -138 101 -210 160 -71 60
-172 143 -224 185 -277 221 -388 410 -335 570 10 29 52 103 93 164 87 129 104
165 127 271 20 94 24 108 30 102 2 -2 0 -42 -5 -89z m1100 11 c0 -3 -7 -7 -15
-7 -8 0 -12 4 -9 9 3 4 0 8 -7 8 -12 0 -9 -44 7 -100 4 -14 4 -23 2 -20 -3 3
-13 29 -21 57 -14 48 -14 54 0 68 12 12 18 13 29 4 8 -6 14 -15 14 -19z m707
-12 c-3 -8 -6 -5 -6 6 -1 11 2 17 5 13 3 -3 4 -12 1 -19z m-17 -37 c-5 -11
-15 -23 -21 -27 -6 -3 -3 5 6 20 20 30 30 35 15 7z m1535 -106 c0 -27 -49 -34
-59 -9 -8 20 10 35 39 32 12 -2 20 -11 20 -23z m-70 -185 c3 -6 -5 -10 -19
-10 -14 0 -28 5 -31 10 -3 6 5 10 19 10 14 0 28 -4 31 -10z m253 -36 c27 -31
30 -84 5 -84 -10 0 -36 11 -58 23 -40 22 -53 51 -41 84 9 23 66 9 94 -23z
m-3271 -8 c-9 -23 -37 -20 -37 3 0 21 20 33 34 20 5 -4 6 -15 3 -23z m-87 -35
c0 -12 -20 -25 -27 -18 -7 7 6 27 18 27 5 0 9 -4 9 -9z m3168 -37 c-2 -39 -10
-47 -48 -50 -14 -2 -46 -5 -72 -9 -39 -5 -48 -3 -48 10 0 8 3 15 8 16 10 1 53
8 77 12 11 3 25 2 30 -2 6 -3 19 -7 30 -8 16 -2 17 -1 5 6 -8 5 -17 8 -21 5
-7 -4 -19 19 -19 37 0 11 42 29 53 22 4 -2 6 -20 5 -39z m-2328 6 c0 -5 -9
-10 -21 -10 -11 0 -17 5 -14 10 3 6 13 10 21 10 8 0 14 -4 14 -10z m2250 -80
c-8 -5 -24 -9 -35 -9 -16 1 -16 2 5 9 35 11 48 11 30 0z m-2253 -96 c-3 -3
-12 -4 -19 -1 -8 3 -5 6 6 6 11 1 17 -2 13 -5z m2303 -115 c-123 -105 -388
-170 -691 -170 -182 0 -264 9 -534 58 -173 32 -221 37 -355 37 -98 1 -174 -4
-207 -12 -82 -22 -177 -19 -295 8 l-108 24 -192 -32 c-106 -18 -250 -37 -321
-43 -124 -11 -257 -5 -257 11 0 4 -15 14 -34 22 -31 12 -17 13 142 13 153 1
198 5 337 30 l160 30 475 -1 475 0 210 -32 c364 -55 601 -62 860 -27 131 18
194 35 285 78 41 20 77 36 80 36 3 0 -11 -13 -30 -30z m-265 11 c-11 -5 -29
-8 -40 -8 -16 0 -15 2 5 8 34 11 60 11 35 0z m-68 -16 c-3 -3 -12 -4 -19 -1
-8 3 -5 6 6 6 11 1 17 -2 13 -5z m-2897 -19 c17 -9 30 -18 30 -21 0 -4 -59 23
-69 32 -10 9 13 3 39 -11z m-125 -35 c10 -11 16 -20 13 -20 -3 0 -13 9 -23 20
-10 11 -16 20 -13 20 3 0 13 -9 23 -20z m2131 -301 c-39 -23 -186 -72 -286
-95 -68 -16 -147 -26 -225 -28 -76 -3 -104 -2 -75 3 l45 8 -40 3 c-25 2 4 8
75 16 137 15 217 29 323 55 43 11 83 17 89 13 7 -5 8 -2 3 6 -5 8 -3 11 6 8 8
-3 28 1 44 8 38 17 69 18 41 3z m1299 -194 c25 -92 30 -297 11 -440 -16 -123
-82 -444 -92 -454 -8 -7 2 68 27 214 31 187 42 338 35 514 -3 92 -8 186 -11
211 -7 58 7 36 30 -45z m-740 44 c7 -7 -3 -23 -35 -51 -61 -55 -460 -251 -665
-326 -88 -33 -179 -69 -203 -81 -23 -12 -42 -19 -42 -16 0 2 27 18 59 35 70
35 145 85 116 77 -84 -23 -171 -27 -211 -11 -26 11 -33 20 -36 49 -2 19 1 40
6 45 7 7 3 10 -9 11 -15 0 -13 4 10 14 17 8 23 14 15 15 -35 1 15 20 155 60
83 23 222 65 310 92 143 44 305 88 375 101 38 8 143 -2 155 -14z m-1700 -184
c224 -187 322 -274 329 -291 2 -6 -4 -14 -15 -17 -22 -6 -165 114 -362 302
-89 86 -209 219 -162 180 11 -9 106 -88 210 -174z m-596 82 c-41 -81 -201
-340 -272 -441 -40 -55 -90 -127 -111 -158 -35 -52 -56 -71 -56 -51 0 11 49
91 179 290 69 106 157 242 196 302 68 107 106 141 64 58z m116 -333 c-24 -351
-29 -602 -16 -744 25 -264 43 -399 67 -510 34 -153 114 -415 158 -520 45 -106
45 -116 0 -25 -19 39 -32 62 -29 52 3 -11 8 -31 11 -45 10 -51 -32 37 -71 148
-124 356 -183 772 -172 1220 6 206 15 313 53 608 15 113 14 34 -1 -184z m115
170 c18 -30 31 -57 28 -59 -2 -2 -18 23 -36 56 -18 32 -31 59 -28 59 2 0 19
-25 36 -56z m3113 -142 c103 -90 112 -101 152 -186 24 -50 43 -92 42 -93 -1
-1 -42 35 -90 79 -55 50 -130 137 -202 232 -63 84 -115 155 -115 158 0 4 23
-16 52 -44 29 -28 101 -94 161 -146z m-968 136 c-22 -12 -87 -41 -145 -65 -58
-23 -97 -43 -87 -43 13 0 17 -8 17 -34 0 -22 6 -36 16 -40 10 -4 13 -13 9 -26
-7 -23 4 -26 24 -7 11 10 11 8 2 -10 -14 -27 -14 -36 -1 -28 6 3 10 1 10 -4 0
-6 5 -11 11 -11 5 0 7 5 4 10 -4 6 -2 9 3 8 6 -2 43 26 84 61 40 36 -84 -91
-276 -282 -192 -191 -351 -346 -352 -344 -2 1 -32 90 -67 197 -35 107 -77 222
-92 254 -37 78 -89 136 -123 136 -16 0 -22 4 -17 9 25 22 140 54 245 67 174
21 358 63 610 139 63 19 126 34 140 34 22 0 20 -2 -15 -21z m-1666 -203 l26
-25 -32 12 c-25 9 -37 9 -55 -1 -40 -21 -238 -181 -318 -256 -80 -76 -128
-115 -140 -115 -11 0 7 75 26 112 50 97 106 261 120 348 7 52 14 100 14 106 0
15 328 -150 359 -181z m-2129 99 c0 -9 -37 15 -51 33 -10 12 -5 11 19 -6 17
-12 32 -24 32 -27z m1159 4 c-30 -57 -125 -137 -298 -252 -102 -69 -203 -140
-223 -159 -21 -19 -38 -34 -38 -32 0 1 7 20 16 40 22 54 104 129 223 205 56
36 152 99 214 141 62 42 113 77 115 78 1 1 -3 -9 -9 -21z m3876 -192 c129 -55
310 -146 289 -146 -24 -1 -58 -28 -73 -60 -10 -21 -10 -22 1 -9 21 26 146 44
203 30 79 -20 171 -95 237 -192 25 -37 29 -51 25 -92 -4 -49 -80 -217 -97
-217 -14 0 -13 2 15 66 52 118 42 167 -57 260 -85 81 -100 86 -225 78 -96 -7
-107 -5 -119 11 -8 11 -14 28 -14 40 0 25 -168 192 -250 247 -37 25 -23 22 65
-16z m-2212 8 c9 -3 12 -14 9 -30 -4 -22 -9 -24 -51 -23 -25 1 -39 3 -30 6 9
2 21 15 27 28 12 26 20 29 45 19z m1542 -99 c-17 -124 -29 -159 -60 -175 -13
-7 -22 -16 -20 -20 5 -8 -119 -67 -220 -105 -38 -14 -80 -33 -92 -41 -13 -8
-23 -10 -23 -5 0 6 30 27 68 47 159 87 274 159 287 178 11 17 65 203 65 224 0
3 2 3 5 1 2 -3 -2 -50 -10 -104z m-1912 78 c-3 -10 -9 -22 -12 -28 -6 -10 -7
-16 -10 -35 0 -5 -8 -10 -17 -10 -8 0 -12 4 -9 10 3 6 -1 7 -9 4 -9 -3 -16 -1
-16 5 0 7 7 14 15 17 8 4 12 10 9 15 -3 5 -2 9 3 8 21 -4 33 2 33 16 0 8 4 15
10 15 5 0 7 -8 3 -17z m-1818 -70 c-40 -40 -56 -85 -65 -183 l-7 -85 -2 66 c0
36 -4 94 -7 128 -8 72 -25 78 -58 22 -22 -38 -28 -150 -14 -246 7 -42 4 -37
-16 28 -28 94 -36 105 -70 89 -55 -25 -100 -144 -114 -299 l-8 -88 -17 57 c-9
31 -17 85 -17 121 0 97 57 205 165 314 88 88 114 101 204 102 l54 1 -28 -27z
m805 24 c0 -1 -39 -41 -87 -87 l-88 -85 80 86 c69 74 95 98 95 86z m2395 -209
c59 -125 204 -332 283 -406 l25 -23 -68 -101 c-154 -227 -298 -392 -620 -709
-258 -254 -357 -341 -164 -143 286 293 710 791 768 901 18 35 13 44 -121 214
-98 125 -103 129 -106 99 -2 -21 8 -51 34 -98 91 -163 104 -189 104 -218 0
-54 -88 -98 -120 -59 -7 9 -32 29 -56 45 l-43 29 10 -27 c6 -15 22 -43 36 -62
25 -35 25 -35 -13 4 -22 23 -39 35 -42 28 -2 -7 -8 -10 -13 -6 -5 3 -9 -1 -9
-8 0 -11 -2 -11 -9 0 -6 10 -18 8 -56 -12 -26 -15 -56 -26 -66 -26 -11 0 -19
-4 -19 -10 0 -5 -7 -10 -15 -10 -8 0 -15 -4 -15 -10 0 -5 -9 -10 -21 -10 -30
0 -61 19 -53 33 4 7 -2 4 -14 -7 -19 -17 -22 -17 -28 -2 -3 9 -10 14 -14 11
-11 -7 -22 24 -14 37 5 7 12 4 21 -7 7 -11 13 -14 13 -8 0 7 -5 15 -11 18 -6
4 -8 14 -5 24 4 11 2 10 -10 -4 -24 -31 -38 -59 -25 -51 6 4 11 2 11 -4 0 -7
-7 -10 -15 -6 -9 3 -15 0 -15 -10 0 -8 5 -12 11 -8 8 4 8 0 0 -15 -13 -24 -23
-28 -15 -6 4 8 1 15 -4 15 -6 0 -13 -9 -17 -19 -3 -11 -13 -25 -22 -33 -20
-16 -20 -15 50 94 28 45 53 75 60 71 6 -4 7 -1 3 6 -10 16 133 233 147 224 6
-3 7 -1 3 6 -9 14 41 84 54 76 4 -2 14 3 21 13 13 15 12 16 -3 3 -10 -7 -18
-9 -18 -3 0 15 26 33 35 24 5 -4 5 -2 1 5 -6 10 45 77 123 164 22 24 24 24 46
-23z m-2585 29 c0 -2 -10 -12 -22 -23 l-23 -19 19 23 c18 21 26 27 26 19z
m2195 -35 c-1 -9 -39 -71 -83 -137 -203 -307 -389 -653 -551 -1029 -35 -82
-73 -158 -83 -168 -10 -10 -15 -18 -10 -18 4 0 2 -4 -3 -8 -6 -4 -34 -56 -62
-117 -29 -60 -56 -109 -62 -108 -6 2 -7 -5 -4 -14 5 -12 3 -14 -7 -8 -9 5 -11
4 -6 -3 9 -15 -12 -54 -24 -47 -6 4 -7 -1 -3 -11 5 -13 3 -15 -7 -9 -8 5 -11
4 -7 -2 3 -5 -7 -35 -23 -67 -17 -32 -32 -52 -34 -45 -9 27 -17 266 -17 450 1
164 27 485 47 584 4 17 30 55 58 86 43 47 98 135 163 261 18 34 12 44 -84 142
l-68 69 69 -61 c66 -58 95 -74 65 -35 -12 16 -11 15 8 -1 13 -10 20 -24 16
-30 -3 -6 -3 -8 2 -4 4 4 20 1 36 -7 47 -25 87 -19 121 17 l29 31 -7 -27 c-3
-15 -2 -26 2 -25 16 4 64 -13 59 -21 -5 -9 42 -2 70 10 11 5 32 11 47 14 17 4
62 44 123 109 52 57 102 104 111 104 8 0 13 -5 11 -11 -3 -6 -10 -10 -16 -8
-6 1 -10 -4 -8 -10 1 -7 -3 -12 -10 -11 -8 2 -10 -4 -6 -14 4 -10 2 -14 -4
-10 -6 4 -17 -1 -24 -10 -10 -12 -10 -14 -1 -9 17 10 15 -4 -5 -26 -15 -16
-15 -18 -1 -13 21 8 90 113 83 126 -4 5 -11 7 -16 4 -5 -4 -9 -3 -9 2 0 6 120
133 127 133 1 0 0 -8 -2 -18z m-2251 -21 c3 -4 -3 -16 -13 -26 -20 -17 -24 -4
-8 23 10 14 14 15 21 3z m4140 -13 c-5 -7 -3 -8 6 -3 7 4 24 9 37 11 20 2 22
0 12 -12 -14 -17 -23 -18 -13 -1 4 7 3 9 -2 4 -5 -5 -9 -14 -9 -19 0 -6 -6
-13 -14 -16 -8 -3 -11 0 -7 7 5 7 1 9 -8 5 -9 -3 -13 -11 -9 -17 4 -7 0 -8
-13 -3 -15 6 -16 5 -7 -5 9 -9 3 -18 -28 -41 -22 -16 -49 -38 -60 -49 -11 -11
-24 -17 -30 -14 -5 4 -8 1 -7 -7 2 -7 -3 -12 -9 -10 -7 1 -12 -4 -10 -10 1 -7
-4 -12 -11 -10 -8 1 -11 -2 -7 -8 3 -5 3 -10 -2 -10 -4 0 -25 -16 -45 -36 -29
-27 -38 -31 -36 -17 2 33 -2 63 -9 62 -24 -4 -39 4 -48 23 -6 13 -19 25 -30
27 -30 5 -38 25 -13 31 12 3 24 12 26 19 3 8 0 11 -7 7 -7 -4 -11 0 -11 11 0
13 8 18 29 19 22 1 28 -3 24 -14 -4 -10 -1 -13 8 -10 8 3 13 10 12 15 -1 5 21
8 48 7 27 -2 49 2 49 7 0 5 15 9 33 9 63 0 102 22 60 33 -10 3 2 6 27 7 35 1
41 3 25 10 -16 7 -12 9 18 9 26 1 36 -3 31 -11z m176 -8 c0 -6 -7 -13 -15 -16
-8 -4 -15 -12 -15 -20 0 -7 -12 -21 -27 -31 -39 -24 -273 -203 -273 -209 0 -2
37 23 82 57 44 33 100 69 122 79 l41 19 -29 -22 c-143 -107 -199 -147 -207
-147 -5 0 -8 -5 -6 -11 1 -6 -6 -13 -15 -14 -21 -4 -23 5 -5 25 6 8 1 6 -12
-5 -36 -31 -115 -134 -151 -197 -17 -32 -33 -58 -35 -58 -10 0 30 135 56 187
24 51 52 83 148 170 138 127 184 160 254 184 59 21 87 24 87 9z m-4475 -112
c-16 -12 -45 -37 -63 -55 -22 -21 -32 -27 -30 -15 2 9 28 33 57 54 57 40 87
53 36 16z m1278 -241 c37 -79 38 -104 5 -61 -27 34 -68 29 -87 -10 -10 -21
-11 -34 -2 -52 15 -34 72 -34 99 1 20 25 40 35 26 14 -3 -6 1 -27 9 -47 8 -21
27 -67 42 -105 15 -37 30 -69 34 -72 4 -2 7 35 6 83 l-1 86 15 -44 c20 -61 19
-198 -3 -360 -22 -161 -31 -535 -19 -764 8 -157 8 -159 -15 -190 -27 -35 -134
-243 -167 -324 l-21 -53 -52 128 c-62 155 -75 209 -103 428 -40 310 -27 715
37 1090 33 197 37 211 97 340 l52 109 7 -61 c4 -37 21 -91 41 -136z m-1893
149 c0 -2 -25 -55 -55 -117 -59 -123 -228 -580 -271 -731 -29 -101 -63 -177
-100 -221 -39 -46 -27 -13 21 63 25 39 45 80 45 93 0 45 60 257 128 452 151
432 166 465 208 465 13 0 24 -2 24 -4z m4625 -6 c3 -5 1 -10 -4 -10 -6 0 -11
5 -11 10 0 6 2 10 4 10 3 0 8 -4 11 -10z m-5768 -67 c-3 -10 -5 -4 -5 12 0 17
2 24 5 18 2 -7 2 -21 0 -30z m110 -197 c-4 -12 -47 187 -46 212 0 9 12 -32 25
-92 13 -61 23 -114 21 -120z m5753 150 c0 -2 -8 -10 -17 -17 -16 -13 -17 -12
-4 4 13 16 21 21 21 13z m-3283 -38 c-42 -31 -47 -55 -26 -117 11 -30 17 -56
15 -58 -2 -2 -14 25 -26 62 -21 62 -21 67 -5 91 9 14 26 29 38 34 34 13 34 11
4 -12z m550 -20 c-3 -8 -6 -5 -6 6 -1 11 2 17 5 13 3 -3 4 -12 1 -19z m-2440
-24 c38 -38 20 -41 -33 -5 -44 29 -46 31 -20 31 16 0 38 -11 53 -26z m2148
-31 c-12 -29 -63 -466 -76 -643 -14 -199 -6 -446 20 -620 11 -69 18 -126 16
-128 -2 -2 -15 34 -31 80 -15 46 -58 162 -97 258 -136 343 -233 620 -218 620
4 0 29 35 56 78 27 42 54 82 61 89 6 6 17 25 24 42 10 25 15 29 26 20 8 -7 21
-8 31 -3 26 11 53 13 59 3 7 -12 -146 -195 -160 -191 -6 2 -8 0 -3 -4 10 -10
-23 -45 -36 -37 -5 3 -7 1 -4 -4 4 -6 0 -16 -8 -23 -18 -15 -18 -10 -5 25 7
17 7 24 0 20 -6 -3 -10 -13 -10 -21 0 -9 -5 -12 -11 -8 -8 4 -8 0 0 -15 7 -12
9 -26 6 -31 -20 -33 18 9 142 153 144 168 178 213 125 163 -28 -26 -30 -27
-25 -7 3 12 17 30 31 41 13 11 20 20 15 20 -12 0 -65 -55 -58 -62 3 -2 -2 -5
-10 -5 -12 0 -12 4 -3 16 29 38 62 70 68 66 4 -3 7 1 6 8 -1 11 64 116 73 117
2 0 0 -8 -4 -17z m-1916 -95 c-18 -51 -36 -97 -41 -102 -4 -6 8 39 28 98 20
59 38 105 41 102 3 -3 -10 -47 -28 -98z m2112 65 c-10 -17 -10 -16 -11 3 0 23
13 41 18 25 2 -6 -1 -18 -7 -28z m3410 -137 c23 -72 71 -207 107 -301 67 -174
92 -255 91 -290 0 -11 -13 13 -30 53 -53 131 -197 431 -245 510 l-47 77 29 52
c21 40 31 50 41 41 7 -5 31 -69 54 -142z m-3842 -6 c0 -10 -3 -8 -9 5 -12 27
-12 43 0 25 5 -8 9 -22 9 -30z m544 15 c-3 -9 -8 -14 -10 -11 -3 3 -2 9 2 15
9 16 15 13 8 -4z m868 -58 c-10 -9 -11 -8 -5 6 3 10 9 15 12 12 3 -3 0 -11 -7
-18z m836 -179 c12 -11 26 -33 31 -47 l10 -27 -49 10 c-26 5 -48 12 -47 15 2
25 -4 51 -12 51 -5 0 -21 -12 -35 -27 -14 -15 -25 -24 -25 -18 0 5 14 24 32
42 35 36 56 36 95 1z m177 -98 c8 -8 6 -9 -8 -4 -13 5 -17 4 -12 -4 4 -7 1
-12 -6 -12 -15 0 -38 19 -38 32 0 11 51 1 64 -12z m1941 -17 c-119 -14 -248
-54 -307 -94 -31 -23 -38 -23 -38 -5 0 15 62 47 160 82 48 18 84 23 140 22 41
0 62 -3 45 -5z m-6660 -95 c93 -32 208 -95 246 -135 l34 -37 -38 32 c-41 35
-96 66 -104 59 -2 -3 5 -8 17 -12 13 -4 19 -12 16 -21 -3 -8 0 -14 6 -14 6 0
8 -3 5 -6 -4 -4 -13 -1 -21 5 -11 9 -16 9 -22 0 -5 -8 -3 -9 6 -4 9 5 11 4 6
-3 -8 -14 -61 10 -86 38 -21 22 -62 50 -76 50 -7 0 -3 -17 10 -44 12 -24 25
-41 30 -38 5 3 6 0 2 -6 -4 -7 -3 -12 3 -12 6 0 7 -7 4 -17 -4 -11 -3 -14 5
-9 8 5 12 -2 12 -21 -1 -24 -5 -20 -32 32 -16 33 -40 70 -51 83 -35 38 -113
71 -182 78 -74 8 -85 21 -22 27 69 7 168 -4 232 -25z m1746 -55 c29 -43 65
-99 80 -125 15 -26 35 -60 45 -75 l16 -28 -21 25 c-11 14 -21 28 -21 33 0 4
-6 6 -12 5 -8 -2 -12 5 -10 16 2 10 -1 15 -7 12 -5 -4 -15 3 -21 14 -6 11 -7
20 -3 20 4 0 1 5 -7 10 -8 5 -15 15 -15 22 -1 7 -17 38 -36 68 -48 75 -51 80
-46 80 3 0 29 -35 58 -77z m-1808 -63 c61 -56 127 -155 127 -190 0 -6 -39 9
-87 33 -49 24 -121 52 -161 62 -40 9 -71 20 -68 22 8 8 153 -27 199 -47 23
-10 43 -18 44 -16 2 1 -11 28 -27 58 -28 52 -73 100 -146 156 l-29 22 40 -19
c22 -10 71 -47 108 -81z m4902 81 c-17 -17 -254 -60 -395 -72 -173 -15 -410
-2 -410 22 0 4 71 5 158 2 157 -6 329 8 527 41 101 17 132 19 120 7z m2265
-13 c63 -20 152 -93 218 -182 33 -44 26 -50 -20 -18 -124 85 -198 105 -388
105 -111 0 -162 -5 -275 -27 -16 -3 -7 3 20 12 28 10 63 24 78 30 16 7 37 12
47 12 10 0 21 4 24 9 6 9 -67 -6 -141 -28 -21 -6 -33 -6 -35 1 -2 6 -21 2 -46
-11 -23 -12 -42 -19 -42 -16 0 11 185 94 235 105 123 29 248 32 325 8z m-7572
-44 c17 -3 32 -9 32 -14 0 -5 8 -10 18 -13 9 -2 -5 -7 -33 -11 -193 -28 -338
-77 -439 -149 l-28 -20 12 24 c25 46 120 130 174 154 89 39 151 46 264 29z
m216 -40 c8 -21 -7 -17 -21 6 -11 16 -10 18 1 14 8 -3 17 -12 20 -20z m6455
-98 c-17 -48 -33 -85 -35 -83 -3 2 10 43 27 91 18 47 34 85 36 83 2 -3 -11
-43 -28 -91z m-4939 35 c-1 -10 -6 -7 -15 9 -19 33 -18 50 0 26 8 -11 15 -27
15 -35z m-1166 -106 l6 -40 -14 35 c-17 40 -21 85 -7 60 5 -8 12 -33 15 -55z
m4553 39 c-3 -3 -12 -4 -19 -1 -8 3 -5 6 6 6 11 1 17 -2 13 -5z m-345 -15 c75
-1 140 1 145 4 4 2 28 1 53 -2 42 -7 39 -8 -45 -16 -118 -10 -417 -1 -441 14
-15 10 -1 11 66 7 47 -3 147 -6 222 -7z m291 4 c-7 -2 -19 -2 -25 0 -7 3 -2 5
12 5 14 0 19 -2 13 -5z m-2616 -143 c36 -52 59 -89 51 -83 -8 7 -19 9 -23 5
-5 -4 -5 -2 -2 4 3 6 -13 38 -36 70 -45 62 -100 154 -72 119 9 -11 46 -63 82
-115z m4261 0 c17 -11 32 -23 32 -28 0 -13 -79 -44 -91 -36 -7 4 -9 3 -5 -4 3
-6 1 -14 -6 -18 -7 -4 -10 -4 -6 1 4 4 2 17 -4 28 -8 16 -8 19 4 14 10 -3 14
1 13 16 -2 21 11 47 24 47 3 0 21 -9 39 -20z m-5176 -17 c38 -36 35 -47 -5
-23 -22 13 -62 22 -112 27 -92 7 -77 21 24 22 57 1 68 -2 93 -26z m5334 -29
c26 -27 31 -44 13 -44 -5 0 -8 -4 -4 -9 3 -6 -5 -15 -17 -21 -21 -10 -21 -10
-6 3 10 8 14 17 10 21 -4 4 -8 12 -8 17 -1 5 -2 14 -3 19 0 6 -7 10 -13 9 -7
0 -24 2 -36 6 -18 6 -20 10 -10 16 24 15 50 9 74 -17z m-4315 -109 l10 -20
-16 20 c-9 11 -21 29 -26 40 l-10 20 16 -20 c9 -11 21 -29 26 -40z m-1063 -71
c39 -11 52 -19 48 -30 -5 -12 -2 -12 15 -3 16 8 19 8 15 0 -8 -12 4 -19 44
-24 14 -2 25 -9 25 -16 0 -13 39 -41 107 -77 40 -20 61 -24 138 -24 49 0 90
-3 90 -8 0 -15 -54 -86 -57 -75 -3 8 -14 8 -36 2 -45 -13 -44 -13 -57 26 -6
19 -16 35 -21 35 -6 0 -7 -9 -4 -21 5 -15 4 -19 -4 -14 -7 4 -19 4 -28 1 -13
-5 -13 -9 -2 -24 8 -9 -1 -4 -19 11 -41 34 -64 36 -33 3 21 -22 21 -24 5 -22
-11 2 -26 0 -35 -5 -9 -4 -50 -9 -91 -10 l-75 -3 38 -56 c45 -68 78 -94 187
-149 87 -44 92 -52 66 -102 -10 -21 -19 -28 -27 -21 -7 5 -86 40 -177 77 -243
99 -282 117 -269 125 8 6 8 14 -2 31 -7 13 -13 28 -14 32 0 12 -28 26 -39 20
-5 -4 -7 1 -3 11 5 12 3 15 -6 9 -30 -19 -47 -9 -27 15 5 7 0 3 -12 -7 -21
-19 -21 -23 -9 -92 17 -93 73 -258 107 -318 15 -25 42 -60 61 -77 l33 -31 -28
5 c-47 6 -99 -21 -107 -57 -12 -57 62 -140 140 -156 l30 -6 -24 18 c-13 10
-44 37 -68 59 -66 63 -55 114 25 114 31 0 117 -51 131 -79 5 -9 9 -51 9 -95
l0 -78 -34 5 c-51 8 -118 45 -158 86 -19 20 -56 74 -82 121 -46 84 -77 128
-205 288 -36 46 -77 104 -90 130 -47 95 -31 258 25 250 16 -2 37 -36 90 -141
38 -75 71 -135 74 -132 3 2 0 10 -5 17 -16 20 -34 80 -22 73 12 -8 5 35 -11
64 -6 12 -8 21 -4 21 3 0 0 7 -7 17 -13 15 -12 15 11 4 16 -8 7 4 -22 31 -27
25 -48 52 -48 61 0 22 37 42 53 29 8 -7 30 -7 60 -1 43 8 133 -1 158 -16 18
-12 9 8 -12 26 -19 16 -32 18 -91 12 -65 -6 -69 -5 -66 13 4 23 20 44 30 38 4
-2 9 0 12 5 4 5 24 12 46 16 36 6 58 20 48 30 -4 4 -18 1 -112 -24 -26 -7 -36
-7 -29 0 16 16 145 46 218 51 11 1 23 7 28 12 5 8 9 7 15 -1 5 -9 17 -10 37
-4 l30 9 -35 3 c-19 1 -43 2 -52 1 -10 -1 -18 2 -18 7 0 5 -20 14 -45 21 -25
7 -47 16 -50 20 -4 6 90 -17 223 -56z m-356 -33 c-16 -20 -53 -53 -83 -73 -84
-57 -110 -79 -120 -102 -8 -17 -8 -14 -4 13 3 18 20 54 39 80 52 70 164 160
180 144 3 -3 7 0 7 8 1 8 4 3 6 -10 3 -15 -5 -35 -25 -60z m5964 -66 c50 -25
102 -70 92 -81 -3 -3 -31 9 -62 27 -32 17 -89 42 -128 54 -50 16 -66 24 -52
28 33 9 97 -3 150 -28z m-2171 -43 c-6 -5 -22 -13 -37 -20 -31 -13 -39 1 -10
17 20 12 60 15 47 3z m93 -34 c19 -19 14 -73 -8 -93 -11 -10 -20 -15 -20 -11
0 4 -7 1 -15 -8 -21 -21 -72 -10 -108 22 -27 26 -27 26 -8 45 17 17 110 56
137 57 5 0 15 -5 22 -12z m597 -24 c94 -19 187 -38 208 -41 20 -3 37 -10 37
-15 0 -4 -10 -6 -22 -3 -13 2 -77 16 -143 31 -116 26 -274 38 -291 22 -4 -5 1
-17 11 -28 20 -22 14 -26 -16 -10 -10 6 -19 8 -19 6 0 -3 18 -15 40 -26 22
-11 40 -23 40 -25 0 -3 -26 8 -57 24 -83 41 -157 61 -231 61 -36 0 -63 2 -60
5 12 13 159 33 243 34 68 1 132 -8 260 -35z m-3540 -30 c98 -59 122 -88 92
-112 -10 -9 -20 -7 -38 4 -24 15 -24 15 -4 -3 35 -31 85 -100 78 -107 -3 -3 0
-6 7 -6 7 0 11 -2 8 -5 -8 -8 -39 6 -33 15 3 5 -5 6 -17 2 -15 -4 -19 -2 -13
8 5 8 3 11 -6 8 -16 -6 -153 64 -186 95 -13 11 -23 27 -23 34 0 22 50 103 63
103 7 0 39 -16 72 -36z m2982 -55 c-20 -12 -14 -29 11 -29 14 0 14 2 3 9 -11
7 -9 10 9 16 18 6 20 9 9 16 -9 6 5 9 39 9 28 0 52 -4 52 -10 0 -5 7 -7 15 -4
25 10 200 -36 274 -71 67 -32 161 -107 161 -127 0 -6 -7 -5 -16 3 -28 23 -36
-10 -13 -48 12 -18 18 -33 14 -33 -4 0 -41 21 -81 46 -91 57 -214 108 -227 95
-6 -6 -2 -9 9 -8 13 1 18 -4 16 -15 -2 -12 3 -15 20 -11 13 3 19 1 13 -4 -33
-27 -38 -43 -20 -63 16 -18 16 -22 4 -33 -8 -6 -13 -11 -11 -10 2 1 9 -3 16
-8 6 -6 38 -26 71 -45 l60 -35 -45 5 c-125 16 -215 18 -287 7 -105 -17 -233
-50 -260 -67 -13 -8 -23 -12 -23 -10 0 5 -109 -51 -150 -76 -27 -17 -25 -31 3
-23 12 4 -12 -14 -53 -39 -79 -48 -115 -54 -134 -22 -9 14 -6 21 14 37 86 70
170 153 170 168 0 10 -6 23 -13 29 -10 9 -34 -6 -103 -64 -49 -42 -111 -90
-137 -107 -38 -24 -187 -83 -317 -123 -11 -4 -20 6 -29 31 -7 21 -21 45 -31
55 -18 18 -16 20 72 54 85 33 239 128 301 184 15 14 27 34 27 44 0 24 23 68
46 90 11 9 59 23 112 33 51 8 104 20 118 25 14 6 38 8 54 5 22 -4 29 -1 33 15
3 11 16 24 29 29 78 30 113 48 146 72 20 15 39 25 42 22 3 -2 -3 -9 -13 -14z
m2250 -43 c29 -55 1 -212 -52 -293 -25 -38 -27 -23 -3 38 25 65 37 230 19 279
-10 29 -9 31 5 19 8 -7 22 -26 31 -43z m-6889 37 c-10 -2 -26 -2 -35 0 -10 3
-2 5 17 5 19 0 27 -2 18 -5z m15 -19 c49 -10 28 -19 -46 -19 -39 -1 -99 -4
-132 -7 -37 -4 -52 -4 -40 2 11 5 30 9 43 9 13 1 31 8 39 17 16 16 48 15 136
-2z m4290 -5 c16 -4 41 -16 55 -25 30 -19 21 -27 -53 -49 -71 -20 -115 -25
-115 -13 0 14 -69 -38 -99 -74 -18 -23 -26 -26 -37 -17 -11 9 -14 8 -14 -2 0
-11 -2 -11 -9 -1 -4 7 -25 13 -47 12 -164 -4 -392 23 -401 47 -3 8 -2 36 3 61
l9 46 170 -2 c131 -2 195 2 280 17 108 20 191 19 258 0z m-784 0 c36 -13 40
-35 16 -93 -21 -51 -54 -70 -106 -61 -79 13 -103 75 -53 134 21 26 33 31 68
31 24 0 57 -5 75 -11z m-1669 -85 c0 -2 -7 0 -17 3 -11 4 -14 3 -9 -5 4 -7 2
-12 -4 -12 -7 0 -10 6 -7 14 3 7 0 19 -6 26 -7 7 0 5 16 -5 15 -9 27 -19 27
-21z m-1862 -3 c-10 -17 -149 -94 -156 -87 -2 3 17 16 41 30 25 15 47 35 50
45 4 16 0 17 -31 10 -19 -4 -49 -17 -66 -29 -29 -20 -29 -19 3 9 36 32 96 50
143 43 22 -3 25 -7 16 -21z m2007 -61 c8 0 15 -4 15 -10 0 -11 -67 14 -117 43
-18 10 -33 15 -33 10 0 -6 18 -18 40 -28 41 -19 72 -45 52 -45 -6 0 -14 5 -17
10 -4 6 -10 8 -15 5 -4 -2 -19 4 -32 15 -14 11 -28 17 -30 14 -4 -4 -3 35 1
44 0 1 28 -11 61 -28 33 -16 66 -30 75 -30z m-2101 35 c-25 -19 -40 -19 -24 0
7 8 20 15 28 15 13 0 12 -3 -4 -15z m3421 -2 c10 -26 -57 -82 -154 -128 -45
-22 -81 -43 -81 -48 0 -4 6 -5 13 0 6 4 20 9 31 10 10 2 49 16 87 32 l69 29
-21 -30 c-22 -31 -78 -70 -118 -83 -63 -20 -131 3 -131 46 0 25 99 109 130
110 23 0 23 1 5 8 -17 7 -15 9 14 16 19 4 57 18 85 31 61 29 62 29 71 7z
m-3130 -37 c-33 -13 -98 -42 -144 -65 -45 -23 -85 -40 -87 -38 -2 2 46 29 108
59 130 64 136 66 163 67 11 0 -7 -10 -40 -23z m6364 -35 c30 -23 61 -73 61
-100 0 -6 -29 19 -64 56 -35 36 -63 67 -62 69 0 2 -8 10 -19 19 -34 27 45 -14
84 -44z m-555 24 c83 -18 166 -48 224 -81 59 -35 52 -38 -15 -8 -127 57 -145
64 -214 78 -39 8 -73 17 -77 20 -8 9 6 7 82 -9z m-3815 -15 c39 -20 51 -35 44
-57 -10 -27 -105 -3 -116 29 -7 21 4 37 20 31 11 -4 14 -2 9 5 -10 17 -1 15
43 -8z m1518 4 c-3 -3 -12 -4 -19 -1 -8 3 -5 6 6 6 11 1 17 -2 13 -5z m-3882
-14 c-3 -5 -12 -10 -18 -10 -7 0 -6 4 3 10 19 12 23 12 15 0z m1980 -22 l40
-11 -34 -9 c-19 -5 -46 -18 -59 -29 -28 -22 -53 -24 -70 -7 -21 21 -13 35 26
51 46 20 47 20 97 5z m-1555 -24 l-35 -14 38 3 c20 2 37 -1 37 -5 0 -4 -5 -8
-12 -8 -9 0 -9 -3 0 -12 7 -7 12 -22 12 -35 0 -33 -29 -100 -46 -107 -11 -4
-10 1 3 22 l17 27 -25 -21 c-13 -12 -29 -20 -36 -17 -6 2 -14 -1 -18 -6 -9
-15 -45 -14 -45 2 0 14 32 110 40 117 3 3 12 14 20 24 14 18 13 19 -15 12 -40
-10 -28 0 21 18 52 19 91 19 44 0z m1304 -9 c62 -19 133 -60 146 -85 7 -14 6
-23 -7 -35 -20 -21 -75 -15 -173 16 -80 26 -90 34 -90 68 0 53 35 63 124 36z
m373 -25 c54 -32 120 -141 86 -140 -5 0 -60 20 -123 43 -122 45 -138 61 -104
98 23 26 98 26 141 -1z m530 -1 c38 -12 83 -62 83 -91 0 -24 -6 -23 -120 16
-41 14 -88 28 -103 31 -36 7 -31 25 14 48 34 17 58 17 126 -4z m3673 -34 c8
-1 26 -5 39 -9 18 -6 21 -10 10 -17 -10 -6 -11 -9 -1 -9 6 0 12 -10 12 -23 0
-13 4 -27 9 -32 4 -6 13 -26 20 -45 l11 -35 -26 30 c-14 17 -50 58 -80 92 -59
67 -66 80 -31 61 12 -6 29 -12 37 -13z m501 -32 c15 -18 13 -18 -71 5 l-35 10
46 1 c32 1 51 -4 60 -16z m-4375 -3 c-15 -5 -37 -16 -47 -26 -40 -36 -33 -139
11 -179 27 -24 36 -13 15 19 -10 14 -19 42 -22 62 -5 34 -4 35 17 24 28 -15
41 -3 16 16 -11 7 -17 17 -13 20 3 3 14 -4 24 -15 9 -12 23 -21 30 -21 6 0 47
-18 90 -40 43 -22 67 -31 53 -20 -14 10 -47 30 -75 44 -27 15 -43 26 -35 26
13 0 13 2 0 10 -12 8 -12 10 5 11 11 0 15 3 8 5 -7 3 -10 11 -7 19 3 7 0 15
-8 18 -7 2 1 2 17 -1 106 -16 236 -145 235 -234 -1 -42 -17 -64 -63 -83 -75
-31 -182 -5 -258 63 -72 64 -95 117 -90 206 2 29 68 86 99 85 l27 -1 -29 -8z
m-2185 -37 c-12 -20 -14 -14 -5 12 4 9 9 14 11 11 3 -2 0 -13 -6 -23z m51 -9
c-6 -11 -11 -13 -16 -5 -4 6 -2 11 3 11 6 0 11 8 12 18 0 9 3 12 5 5 3 -7 1
-20 -4 -29z m2111 11 c-3 -9 -8 -14 -10 -11 -3 3 -2 9 2 15 9 16 15 13 8 -4z
m4367 -20 c30 -13 63 -26 73 -29 29 -9 20 -41 -18 -62 l-35 -19 -73 74 c-72
72 -72 73 -37 66 19 -4 60 -18 90 -30z m-3030 0 c0 -6 -182 -46 -186 -42 -6 6
95 45 126 49 24 4 60 -1 60 -7z m-1904 -8 c4 -4 -20 -7 -54 -7 -34 0 -62 4
-62 8 0 10 106 9 116 -1z m-2014 -37 c-54 -45 -79 -55 -110 -44 -36 13 -42 51
-10 64 13 5 52 9 88 8 l64 -1 -32 -27z m3603 -90 c-3 -5 -2 -10 4 -10 5 0 12
6 14 13 3 7 6 5 6 -5 1 -10 -3 -18 -7 -18 -5 0 -16 -6 -26 -13 -16 -12 -16
-13 3 -13 11 0 17 5 14 11 -4 5 -3 7 2 3 4 -4 15 -2 24 5 14 11 14 10 2 -6
-16 -20 -57 -45 -106 -64 -16 -6 -23 -12 -15 -13 8 -1 2 -5 -15 -9 -24 -5 -32
-3 -41 13 -10 16 -9 23 5 34 9 7 10 11 4 7 -7 -3 -13 0 -13 7 0 15 77 52 103
49 9 -1 17 3 17 8 0 6 7 11 16 11 8 0 12 -4 9 -10z m423 -38 c15 -45 -2 -68
-85 -113 l-79 -43 0 -65 c1 -59 -3 -72 -37 -128 -80 -131 -207 -194 -296 -148
-51 26 -55 84 -11 171 41 82 110 148 200 194 41 21 119 68 174 103 54 36 104
63 111 60 8 -2 18 -17 23 -31z m423 -23 c47 -47 -12 -89 -128 -89 -148 0 -293
-46 -378 -121 -63 -56 -37 -10 38 65 59 59 86 78 144 101 73 28 79 28 123 -2
l25 -17 -19 22 c-25 29 -14 39 54 51 91 15 118 13 141 -10z m-1036 -57 c-3 -3
-11 0 -18 7 -9 10 -8 11 6 5 10 -3 15 -9 12 -12z m27 -4 c-7 -7 -12 -8 -12 -2
0 14 12 26 19 19 2 -3 -1 -11 -7 -17z m-1730 -18 c40 -25 50 -28 54 -15 16 40
79 -8 91 -67 3 -16 10 -31 15 -34 11 -7 0 -69 -18 -105 -21 -41 -57 -59 -119
-59 -67 0 -122 25 -181 82 -39 37 -42 44 -43 94 0 49 3 57 39 94 49 51 90 54
162 10z"/>
<path d="M8036 7175 c-5 -14 90 -63 100 -52 4 4 -4 11 -17 16 -19 8 -20 10 -6
10 21 1 18 22 -3 29 -7 3 -10 0 -6 -6 3 -5 -1 -13 -10 -16 -8 -3 -13 -2 -10 2
2 4 -6 12 -19 18 -18 9 -25 9 -29 -1z"/>
<path d="M8136 7152 c-5 -8 3 -14 23 -18 27 -6 29 -9 19 -22 -11 -12 -11 -16
0 -20 7 -2 19 -10 27 -19 8 -8 15 -10 15 -4 0 5 -5 13 -10 16 -6 4 -8 11 -5
16 4 5 -2 6 -12 2 -15 -6 -16 -4 -6 9 15 17 8 28 -18 28 -9 0 -19 5 -21 12 -3
9 -6 9 -12 0z"/>
<path d="M8240 7053 c0 -1 10 -7 21 -14 13 -6 19 -7 15 -1 -3 6 0 12 6 15 7 2
1 4 -14 3 -16 0 -28 -2 -28 -3z"/>
<path d="M4630 7020 c-9 -6 -10 -10 -3 -10 6 0 15 5 18 10 8 12 4 12 -15 0z"/>
<path d="M4498 6927 c-26 -17 -48 -36 -48 -40 0 -8 88 51 96 65 8 13 1 9 -48
-25z"/>
<path d="M6518 6993 c7 -3 16 -2 19 1 4 3 -2 6 -13 5 -11 0 -14 -3 -6 -6z"/>
<path d="M6478 6983 c7 -3 16 -2 19 1 4 3 -2 6 -13 5 -11 0 -14 -3 -6 -6z"/>
<path d="M5996 6952 c-2 -4 11 -6 30 -4 19 2 34 6 34 8 0 8 -59 4 -64 -4z"/>
<path d="M6358 6943 c7 -3 16 -2 19 1 4 3 -2 6 -13 5 -11 0 -14 -3 -6 -6z"/>
<path d="M6068 6913 c6 -2 18 -2 25 0 6 3 1 5 -13 5 -14 0 -19 -2 -12 -5z"/>
<path d="M6808 6903 c7 -3 16 -2 19 1 4 3 -2 6 -13 5 -11 0 -14 -3 -6 -6z"/>
<path d="M5190 6870 c-98 -20 -192 -98 -237 -197 -54 -117 -50 -315 8 -439 12
-27 23 -57 24 -66 3 -25 25 -49 38 -41 5 3 7 1 4 -4 -11 -17 69 -82 141 -116
56 -26 80 -31 142 -31 102 -1 159 29 268 143 102 105 129 150 138 223 15 124
-96 328 -247 454 -68 57 -197 91 -279 74z m118 -65 c28 -4 52 -11 52 -16 0 -5
9 -9 19 -9 11 0 23 -4 26 -10 4 -6 -1 -7 -12 -3 -15 6 -16 5 -3 -9 8 -8 21
-13 28 -11 14 6 95 -77 116 -119 10 -20 11 -28 2 -32 -6 -2 -3 -5 7 -5 27 -1
3 -39 -30 -47 -22 -6 -23 -8 -9 -16 9 -5 13 -14 10 -20 -4 -6 -8 -23 -9 -37
-1 -14 -3 -32 -3 -38 -2 -15 -88 -18 -97 -4 -3 5 -10 44 -15 85 -9 74 -44 176
-60 176 -5 0 -11 -24 -15 -52 -10 -74 -30 -116 -59 -128 -35 -13 -52 -5 -70
35 -20 42 -20 105 -1 152 l16 37 -27 -24 c-34 -32 -80 -128 -94 -197 -11 -53
-21 -61 -50 -43 -13 9 -13 10 0 10 12 1 11 3 -3 11 -14 8 -16 14 -7 24 7 8 8
20 4 26 -4 7 -3 9 3 6 6 -4 14 3 18 16 4 12 8 24 9 27 1 3 6 16 10 30 5 14 15
33 24 43 8 9 11 17 7 17 -4 0 2 9 14 19 13 11 20 24 17 29 -3 5 5 15 19 22 13
7 21 18 18 26 -3 8 5 16 21 20 14 3 24 10 21 14 -5 8 17 7 103 -5z m-328 -225
c0 -11 -4 -20 -10 -20 -5 0 -10 9 -10 20 0 11 5 20 10 20 6 0 10 -9 10 -20z
m606 -65 c-3 -18 -16 -32 -16 -17 0 6 -8 9 -17 5 -15 -5 -14 -3 2 10 25 20 34
21 31 2z m-399 -392 c9 -7 12 -13 6 -13 -14 0 -64 65 -81 103 -21 49 -13 43
23 -19 20 -32 43 -65 52 -71z m-176 30 c13 -16 12 -17 -3 -4 -10 7 -18 15 -18
17 0 8 8 3 21 -13z"/>
<path d="M5155 6729 c-4 -6 -5 -12 -2 -15 2 -3 7 2 10 11 7 17 1 20 -8 4z"/>
<path d="M7460 6466 c0 -2 7 -7 16 -10 8 -3 12 -2 9 4 -6 10 -25 14 -25 6z"/>
<path d="M9480 4013 c0 -5 10 -18 23 -29 l22 -19 -20 25 c-11 14 -21 27 -22
29 -2 2 -3 0 -3 -6z"/>
<path d="M4806 6485 c-11 -8 -15 -15 -9 -15 6 0 16 7 23 15 16 19 11 19 -14 0z"/>
<path d="M4535 6175 c-5 -37 -2 -52 14 -79 23 -37 96 -90 111 -81 5 3 21 26
35 49 35 59 23 83 -60 125 -84 41 -91 40 -100 -14z"/>
<path d="M4265 5993 c-45 -24 -66 -45 -82 -82 -13 -30 -12 -35 4 -53 10 -12
32 -27 50 -34 21 -9 30 -19 27 -28 -9 -24 15 -91 41 -116 20 -19 27 -21 40
-10 8 7 15 17 15 22 0 5 18 31 41 58 25 30 38 53 33 61 -5 9 -2 10 12 5 17 -6
17 -5 -3 16 -11 13 -30 42 -42 65 -25 50 -78 113 -95 113 -6 -1 -24 -8 -41
-17z m98 -160 c-4 -10 -13 -28 -20 -39 -10 -16 -11 -28 -3 -49 13 -35 10 -38
-15 -12 -11 11 -14 17 -7 13 23 -14 12 14 -13 30 -14 9 -25 20 -25 25 0 6 50
34 87 48 1 1 -1 -7 -4 -16z"/>
<path d="M4300 5800 c0 -5 5 -10 11 -10 5 0 7 5 4 10 -3 6 -8 10 -11 10 -2 0
-4 -4 -4 -10z"/>
<path d="M4469 5967 c-43 -29 -46 -47 -16 -97 l24 -40 46 43 c32 29 47 52 47
68 0 52 -45 64 -101 26z"/>
<path d="M3882 5440 c-18 -11 -40 -36 -48 -55 -16 -39 -18 -59 -5 -51 5 4 7
-3 4 -14 -4 -15 7 -33 39 -64 53 -53 104 -68 144 -41 34 22 25 30 -12 10 -16
-8 -35 -15 -43 -15 -7 0 11 13 40 28 30 15 55 36 57 46 3 12 0 16 -7 11 -6 -3
-9 -11 -5 -16 3 -5 2 -8 -3 -7 -4 1 -19 -4 -33 -11 -24 -12 -24 -12 2 11 35
29 57 74 51 98 -3 11 -23 36 -44 55 -46 41 -87 46 -137 15z m48 -202 c0 -14
-17 -9 -41 12 l-24 19 33 -12 c17 -6 32 -15 32 -19z"/>
<path d="M3981 3634 c0 -11 3 -14 6 -6 3 7 2 16 -1 19 -3 4 -6 -2 -5 -13z"/>
<path d="M7500 5686 c0 -2 7 -6 15 -10 8 -3 15 -1 15 4 0 6 -7 10 -15 10 -8 0
-15 -2 -15 -4z"/>
<path d="M7791 5574 c0 -11 3 -14 6 -6 3 7 2 16 -1 19 -3 4 -6 -2 -5 -13z"/>
<path d="M7940 5550 c-12 -7 -10 -9 8 -7 12 0 22 5 22 9 0 11 -12 10 -30 -2z"/>
<path d="M7975 5529 c-11 -16 -1 -19 13 -3 7 8 8 14 3 14 -5 0 -13 -5 -16 -11z"/>
<path d="M8397 6212 c-34 -37 -49 -115 -24 -125 9 -4 9 -7 -1 -15 -11 -7 -11
-11 0 -19 15 -12 84 -33 110 -33 17 0 17 2 1 41 -9 23 -12 44 -7 47 5 4 8 14
8 22 -1 8 -2 23 -3 33 -1 19 -44 67 -59 67 -5 0 -16 -8 -25 -18z"/>
<path d="M8500 6116 c0 -2 8 -10 18 -17 15 -13 16 -12 3 4 -13 16 -21 21 -21
13z"/>
<path d="M8518 6073 c26 -26 52 -32 32 -8 -7 9 -15 13 -18 10 -3 -3 -13 1 -22
7 -9 7 -5 3 8 -9z"/>
<path d="M8965 5408 c-135 -74 -139 -220 -7 -263 41 -13 43 -15 12 -11 l-35 5
30 -14 c60 -28 175 -6 161 30 -3 8 0 17 6 21 7 5 8 2 4 -7 -4 -8 1 -4 11 8 15
19 17 35 13 90 l-5 67 -63 43 c-65 44 -92 51 -127 31z"/>
<path d="M9366 4553 c4 -20 2 -33 -7 -38 -8 -5 -10 -4 -5 3 14 24 -2 11 -18
-13 -16 -25 -16 -27 6 -46 25 -23 8 -16 -34 13 -35 24 -68 23 -108 -4 -45 -31
-69 -66 -77 -111 -5 -35 -3 -40 46 -87 29 -28 56 -50 62 -50 5 0 9 -6 9 -14 0
-19 53 -30 78 -17 11 6 32 25 47 43 l28 33 -7 150 c-4 82 -11 154 -17 160 -6
6 -7 -2 -3 -22z"/>
<path d="M9297 4503 c3 -7 8 -13 12 -13 4 0 8 6 8 13 0 8 -6 14 -13 14 -7 0
-10 -6 -7 -14z"/>
<path d="M5030 5116 c0 -2 7 -6 15 -10 8 -3 15 -1 15 4 0 6 -7 10 -15 10 -8 0
-15 -2 -15 -4z"/>
<path d="M5860 4585 c19 -19 36 -35 39 -35 3 0 -10 16 -29 35 -19 19 -36 35
-39 35 -3 0 10 -16 29 -35z"/>
<path d="M7596 3991 c-17 -18 -25 -34 -21 -41 5 -8 3 -11 -6 -8 -8 3 -24 -9
-36 -26 -30 -40 -29 -45 2 -12 14 15 30 24 35 21 10 -6 14 7 10 34 -1 9 4 12
14 8 8 -3 18 -1 22 5 4 7 3 8 -4 4 -7 -4 -12 -3 -12 2 0 16 13 22 27 11 14
-13 17 -1 5 19 -6 9 -16 4 -36 -17z"/>
<path d="M7740 3590 c6 -11 13 -20 16 -20 2 0 0 9 -6 20 -6 11 -13 20 -16 20
-2 0 0 -9 6 -20z"/>
<path d="M7760 3551 c0 -6 -12 -11 -26 -11 -20 0 -25 -4 -20 -16 5 -14 1 -16
-26 -10 -25 4 -29 3 -18 -5 12 -8 9 -10 -14 -6 l-30 5 34 -30 c40 -35 79 -35
96 0 8 17 13 20 17 10 3 -7 5 4 4 25 0 21 -5 41 -9 43 -4 3 -8 0 -8 -5z"/>
<path d="M7389 2893 c-13 -16 -12 -17 4 -4 16 13 21 21 13 21 -2 0 -10 -8 -17
-17z"/>
<path d="M7219 3953 c-50 -54 -61 -70 -51 -77 5 -3 24 16 43 41 61 84 64 95 8
36z"/>
<path d="M6870 3610 c-9 -6 -10 -10 -3 -10 6 0 15 5 18 10 8 12 4 12 -15 0z"/>
<path d="M6785 3575 c-25 -12 -26 -14 -5 -9 28 7 60 23 45 23 -5 0 -23 -6 -40
-14z"/>
<path d="M6642 2895 c-17 -37 -14 -45 4 -12 9 16 14 31 11 33 -2 2 -9 -7 -15
-21z"/>
<path d="M6597 2794 c-37 -74 -33 -83 4 -10 17 32 29 60 27 62 -2 2 -16 -21
-31 -52z"/>
<path d="M6552 2695 c-17 -37 -14 -45 4 -12 9 16 14 31 11 33 -2 2 -9 -7 -15
-21z"/>
<path d="M6026 3162 c-12 -23 -12 -32 -1 -60 11 -25 20 -32 43 -32 37 0 52 17
52 60 0 43 -14 60 -52 60 -20 0 -31 -8 -42 -28z"/>
<path d="M5987 2642 c-25 -27 -21 -69 8 -98 28 -28 51 -22 79 18 22 31 20 51
-7 76 -28 27 -58 28 -80 4z"/>
<path d="M6022 2253 c-31 -27 -34 -54 -12 -91 25 -40 60 -43 89 -6 27 35 26
59 -4 89 -29 30 -46 31 -73 8z"/>
<path d="M5206 2737 c3 -10 9 -15 12 -12 3 3 0 11 -7 18 -10 9 -11 8 -5 -6z"/>
<path d="M10165 2832 c-6 -5 -36 -16 -67 -26 -32 -9 -58 -19 -58 -21 0 -7 64
7 75 16 5 5 17 9 28 9 10 0 25 7 33 15 16 15 5 21 -11 7z"/>
<path d="M10428 2793 c6 -2 18 -2 25 0 6 3 1 5 -13 5 -14 0 -19 -2 -12 -5z"/>
<path d="M10293 2783 c15 -2 39 -2 55 0 15 2 2 4 -28 4 -30 0 -43 -2 -27 -4z"/>
<path d="M10523 2774 c33 -8 64 -17 69 -21 6 -3 8 -1 5 4 -7 12 -85 33 -114
32 -10 0 8 -7 40 -15z"/>
<path d="M10193 2773 c9 -2 25 -2 35 0 9 3 1 5 -18 5 -19 0 -27 -2 -17 -5z"/>
<path d="M9755 2450 c3 -5 8 -10 11 -10 2 0 4 5 4 10 0 6 -5 10 -11 10 -5 0
-7 -4 -4 -10z"/>
<path d="M4385 2250 c-19 -8 -19 -9 2 -9 12 -1 25 4 28 9 7 12 -2 12 -30 0z"/>
<path d="M4430 2246 c0 -2 7 -6 15 -10 8 -3 15 -1 15 4 0 6 -7 10 -15 10 -8 0
-15 -2 -15 -4z"/>
<path d="M4401 1986 c2 -2 15 -9 29 -15 24 -11 24 -11 6 3 -16 13 -49 24 -35
12z"/>
<path d="M3916 1940 c13 -95 34 -146 100 -240 38 -52 89 -131 114 -175 65
-112 74 -125 82 -125 5 0 8 9 8 20 0 11 -4 20 -10 20 -5 0 -13 16 -19 35 -9
35 -114 231 -154 289 -11 16 -44 72 -74 125 -52 93 -53 95 -47 51z"/>
<path d="M9918 2183 c7 -3 16 -2 19 1 4 3 -2 6 -13 5 -11 0 -14 -3 -6 -6z"/>
<path d="M8208 1868 c5 -5 16 -8 23 -6 8 3 3 7 -10 11 -17 4 -21 3 -13 -5z"/>
<path d="M8030 1828 c-130 -45 -229 -69 -352 -84 -139 -17 -187 -29 -172 -44
12 -11 86 -16 102 -6 7 4 60 16 117 26 58 10 164 38 237 61 73 24 137 42 141
41 5 -2 7 3 5 10 -6 18 -18 17 -78 -4z"/>
<path d="M8240 1810 c0 -5 5 -10 11 -10 5 0 7 5 4 10 -3 6 -8 10 -11 10 -2 0
-4 -4 -4 -10z"/>
<path d="M7818 1783 c6 -2 18 -2 25 0 6 3 1 5 -13 5 -14 0 -19 -2 -12 -5z"/>
<path d="M7768 1773 c6 -2 18 -2 25 0 6 3 1 5 -13 5 -14 0 -19 -2 -12 -5z"/>
<path d="M7693 1763 c9 -2 23 -2 30 0 6 3 -1 5 -18 5 -16 0 -22 -2 -12 -5z"/>
<path d="M7612 1448 c-5 -5 -20 -15 -33 -22 -12 -6 -25 -18 -27 -26 -4 -12 -1
-11 15 3 11 9 24 17 29 17 16 1 46 28 36 34 -5 3 -14 0 -20 -6z"/>
<path d="M7158 1392 c-40 -24 -34 -35 6 -13 19 11 37 17 42 13 4 -4 4 -1 0 6
-9 15 -14 14 -48 -6z"/>
<path d="M3258 1953 c7 -3 16 -2 19 1 4 3 -2 6 -13 5 -11 0 -14 -3 -6 -6z"/>
<path d="M6836 1821 c-3 -5 -16 -7 -29 -4 -17 5 -20 3 -10 -7 13 -14 63 -6 63
10 0 13 -17 13 -24 1z"/>
<path d="M6758 1813 c7 -3 16 -2 19 1 4 3 -2 6 -13 5 -11 0 -14 -3 -6 -6z"/>
<path d="M3306 1855 c-11 -8 -15 -15 -9 -15 6 0 16 7 23 15 16 19 11 19 -14 0z"/>
<path d="M6465 1751 c-3 -5 -2 -12 3 -15 5 -3 9 1 9 9 0 17 -3 19 -12 6z"/>
<path d="M3621 1624 c0 -11 3 -14 6 -6 3 7 2 16 -1 19 -3 4 -6 -2 -5 -13z"/>
<path d="M9480 1621 c15 -30 30 -35 17 -6 -7 14 -16 25 -20 25 -4 0 -3 -9 3
-19z"/>
<path d="M5825 1410 c10 -11 20 -20 23 -20 3 0 -3 9 -13 20 -10 11 -20 20 -23
20 -3 0 3 -9 13 -20z"/>
<path d="M2938 1523 c7 -3 16 -2 19 1 4 3 -2 6 -13 5 -11 0 -14 -3 -6 -6z"/>
<path d="M2870 1501 c0 -6 4 -13 10 -16 6 -3 7 1 4 9 -7 18 -14 21 -14 7z"/>
<path d="M6715 1225 c-75 -36 -130 -88 -161 -151 -30 -62 -27 -83 4 -29 12 19
26 35 32 35 6 0 8 5 5 10 -3 6 -2 10 4 10 5 0 27 16 48 35 21 20 61 47 89 61
78 38 102 17 77 -68 -16 -55 -100 -138 -183 -180 -30 -16 -48 -28 -40 -28 8 0
26 -3 39 -7 17 -4 22 -3 17 5 -4 8 -2 10 8 6 18 -7 109 53 100 67 -3 5 0 8 8
7 7 -2 12 3 10 10 -1 8 1 11 6 8 23 -14 82 87 82 138 0 41 -21 74 -53 86 -38
13 -33 14 -92 -15z"/>
<path d="M6764 1194 c-18 -14 -18 -15 4 -4 12 6 22 13 22 15 0 8 -5 6 -26 -11z"/>
</g>
</svg>
